<svg width="1200" height="900" viewBox="0 0 1200 900" fill="none" xmlns="http://www.w3.org/2000/svg">
  <defs>
    <linearGradient id="bg" x1="0" y1="0" x2="1200" y2="900" gradientUnits="userSpaceOnUse">
      <stop stop-color="#F6F8FB"/>
      <stop offset="1" stop-color="#DFE7F5"/>
    </linearGradient>
    <linearGradient id="body" x1="365" y1="235" x2="830" y2="705" gradientUnits="userSpaceOnUse">
      <stop stop-color="#1F2937"/>
      <stop offset="1" stop-color="#111827"/>
    </linearGradient>
    <linearGradient id="shine" x1="420" y1="290" x2="765" y2="635" gradientUnits="userSpaceOnUse">
      <stop stop-color="#334155" stop-opacity="0.8"/>
      <stop offset="1" stop-color="#111827" stop-opacity="0"/>
    </linearGradient>
  </defs>
  <rect width="1200" height="900" fill="url(#bg)"/>
  <ellipse cx="600" cy="730" rx="290" ry="45" fill="#B2BDD1" fill-opacity="0.35"/>
  <g transform="rotate(-8 600 450)">
    <rect x="370" y="230" width="460" height="470" rx="38" fill="url(#body)"/>
    <rect x="390" y="250" width="420" height="430" rx="30" stroke="#4B5563" stroke-opacity="0.5" stroke-width="6"/>
    <rect x="420" y="285" width="345" height="345" rx="26" fill="url(#shine)"/>
    <rect x="830" y="420" width="34" height="90" rx="12" fill="#0F172A"/>
    <rect x="505" y="360" width="190" height="70" rx="16" fill="#22C55E" fill-opacity="0.12" stroke="#22C55E" stroke-width="4"/>
    <rect x="525" y="385" width="40" height="20" rx="8" fill="#86EFAC"/>
    <rect x="575" y="385" width="40" height="20" rx="8" fill="#86EFAC"/>
    <rect x="625" y="385" width="40" height="20" rx="8" fill="#86EFAC"/>
    <rect x="498" y="470" width="210" height="88" rx="18" fill="#111827" stroke="#64748B" stroke-width="4"/>
    <rect x="520" y="500" width="70" height="24" rx="8" fill="#93C5FD"/>
    <rect x="615" y="500" width="70" height="24" rx="8" fill="#93C5FD"/>
  </g>
</svg>
